# xmcd
#
# Track frame offsets:
#	187
#	29347
#	63037
#	88865
#	123337
#	136540
#	157775
#	181220
#	197687
#	218407
#	230972
#	257477
#
# Disc length: 4181 seconds
#
# Revision: 1
# Processed by: cddbd v1.5.1PL0 Copyright (c) Steve Scherf et al.
# Submitted via: CDex 1.50Beta5
#
DISCID=9410530c
DTITLE=Mrs.Brown - Mrs.Brown 05 コーヒーブレイクの15時
DYEAR=1900
DGENRE=Classical
TTITLE0=ヘンデル/ハープ協奏曲より第1楽章/ヘンデル
TTITLE1=ソル/魔笛の主題による変奏曲
TTITLE2=J.C.バッハ/五重奏曲よりアンダンティーノ/J.C.バッハ
TTITLE3=J.S.バッハ/ブランデンブルグ協奏曲第1番より第4楽章/J.S.バッハ
TTITLE4=レスピーギ/「リュートのための古代舞曲とアリア」第3組曲よりイタリアーナ/レスピーギ
TTITLE5=ムソルグスキー/「展覧会の絵」より古城/ムソルグスキー
TTITLE6=ヴィヴァルディ/ギターと2つのヴァイオリンのための協奏曲より第2楽章/ヴィヴァルディ
TTITLE7=モーツァルト/ホルン協奏曲第2番より第2楽章/モーツァルト
TTITLE8=プーランク/フルート・ソナタより第1楽章/プーランク
TTITLE9=フォーレ/スペイン舞曲〜組曲「ドリー」より
TTITLE10=ドヴォルザーク/交響曲第8番より第3楽章/ドヴォルザーク
TTITLE11=モーツァルト/クラリネット協奏曲より 第1楽章/モーツァルト
EXTD=
EXTT0=
EXTT1=
EXTT2=
EXTT3=
EXTT4=
EXTT5=
EXTT6=
EXTT7=
EXTT8=
EXTT9=
EXTT10=
EXTT11=
PLAYORDER=
